<?xml version="1.0" encoding="UTF-8"?>
<svg width="1024px" height="1024px" viewBox="0 0 1024 1024" version="1.1" xmlns="http://www.w3.org/2000/svg" xmlns:xlink="http://www.w3.org/1999/xlink">
    <title>xpl-logo-neon@2x</title>
    <g id="xpl-logo-neon" stroke="none" stroke-width="1" fill="none" fill-rule="evenodd">
        <path d="M743.5,759.5 L743.5,799.5 L325.5,799.5 L325.5,759.5 L743.5,759.5 Z M512,133.5 C575.92696,133.5 633.80196,159.41152 675.69522,201.30478 C717.58848,243.19804 743.5,301.07304 743.5,365 C743.5,428.92696 717.58848,486.80196 675.69522,528.69522 C633.80196,570.58848 575.92696,596.5 512,596.5 C432.385363,596.5 362.157543,556.310619 320.497021,495.112913 L320.499995,799.5 L280.5,799.5 L280.499984,365.004051 L280.531016,361.171561 C281.554046,298.074046 307.821119,241.113131 349.672705,199.948122 C391.453418,158.852823 448.765976,133.5 512,133.5 Z M512,173.5 C459.118735,173.5 411.243735,194.934368 376.589051,229.589051 C341.934368,264.243735 320.5,312.118735 320.5,365 C320.5,417.881265 341.934368,465.756265 376.589051,500.410949 C411.243735,535.065632 459.118735,556.5 512,556.5 C564.881265,556.5 612.756265,535.065632 647.410949,500.410949 C682.065632,465.756265 703.5,417.881265 703.5,365 C703.5,312.118735 682.065632,264.243735 647.410949,229.589051 C612.756265,194.934368 564.881265,173.5 512,173.5 Z" id="椭圆形-2" stroke="#061D54" fill="#0D314F"></path>
        <path d="M469.886624,366.987005 L509.484604,406.584985 C508.898654,407.170935 508.284459,407.785129 507.64202,408.427569 L503.448448,412.62114 C503.07074,412.998849 502.68597,413.383619 502.294138,413.77545 L495.188124,420.881465 C494.249116,421.820473 493.281863,422.787725 492.286366,423.783222 L485.137796,430.931792 C484.576497,431.493091 484.008137,432.061451 483.432716,432.636873 L481.685269,434.38432 C480.506182,435.563407 479.29885,436.770738 478.063274,438.006315 L476.188726,439.880863 C475.556815,440.512773 474.917844,441.151745 474.271811,441.797777 L462.971471,453.098118 C462.247765,453.821823 461.516999,454.55259 460.779171,455.290418 L447.964213,468.105375 C447.148713,468.920876 446.326151,469.743438 445.496528,470.57306 L442.986476,473.083112 C442.142731,473.926857 441.291925,474.777663 440.434058,475.635531 L435.20212,480.867469 C433.872952,482.196637 432.527896,483.541693 431.166953,484.902636 L424.22984,491.839748 C423.287239,492.78235 422.337576,493.732012 421.380853,494.688736 L414.07303,501.996559 L412.57969,503.489899 L372.98171,463.891919 L469.886624,366.987005 Z M412.57969,226.304041 L650.167568,463.891919 L610.569589,503.489899 L471.976659,364.89697 L372.98171,265.90202 L412.57969,226.304041 Z M610.569589,226.304041 L650.167568,265.90202 L552.878455,363.191133 L513.280475,323.593154 L610.569589,226.304041 Z" id="矩形-2" fill="#991212"></path>
    </g>
</svg>